<svg width="37" height="30" viewBox="0 0 37 30" fill="none" xmlns="http://www.w3.org/2000/svg">
<path d="M18.0001 11.4C15.0001 11.4 12.6001 13.8 12.6001 16.8C12.6001 19.8 15.0001 22.2 18.0001 22.2C21.0001 22.2 23.4001 19.8 23.4001 16.8C23.4001 13.8 21.0001 11.4 18.0001 11.4ZM32.4001 5.9H28.1001C27.5001 5.9 26.9001 5.4 26.7001 4.9L25.6001 1.5C25.4001 0.9 24.8001 0.5 24.2001 0.5H11.9001C11.3001 0.5 10.7001 1 10.5001 1.5L9.4001 4.9C9.2001 5.5 8.6001 5.9 8.0001 5.9H3.7001C1.7001 5.9 0.100098 7.5 0.100098 9.5V25.8C0.100098 27.8 1.7001 29.4 3.7001 29.4H32.5001C34.5001 29.4 36.1001 27.8 36.1001 25.8V9.6C36.0001 7.6 34.4001 5.9 32.4001 5.9ZM18.0001 25.9C13.0001 25.9 9.0001 21.8 9.0001 16.8C9.0001 11.8 13.0001 7.7 18.0001 7.7C23.0001 7.7 27.0001 11.8 27.0001 16.8C27.0001 21.8 23.0001 25.9 18.0001 25.9ZM31.1001 12.1C30.4001 12.1 29.8001 11.5 29.8001 10.8C29.8001 10.1 30.4001 9.5 31.1001 9.5C31.8001 9.5 32.4001 10.1 32.4001 10.8C32.4001 11.5 31.8001 12.1 31.1001 12.1Z" fill="white"/>
</svg>
