<svg width="12" height="12" viewBox="0 0 12 12" fill="none" xmlns="http://www.w3.org/2000/svg">
<path d="M1.76648 10.2785C1.47263 9.98311 1.47263 9.50422 1.76648 9.20886L9.21547 1.72153C9.50932 1.42616 9.98575 1.42616 10.2796 1.72152C10.5735 2.01689 10.5735 2.49578 10.2796 2.79114L2.83063 10.2785C2.53677 10.5738 2.06034 10.5738 1.76648 10.2785Z" fill="#99112B"/>
<path d="M10.2335 10.2785C10.5274 9.98311 10.5274 9.50422 10.2335 9.20886L2.78453 1.72153C2.49068 1.42616 2.01425 1.42616 1.72039 1.72152C1.42654 2.01689 1.42654 2.49578 1.72039 2.79114L9.16937 10.2785C9.46323 10.5738 9.93966 10.5738 10.2335 10.2785Z" fill="#99112B"/>
</svg>
