<svg xmlns="http://www.w3.org/2000/svg" width="22" height="20" viewBox="0 0 22 20">
  <defs>
    <style>
      .cls-1 {
        fill: #2b2829;
        fill-rule: evenodd;
      }
    </style>
  </defs>
  <path class="cls-1" d="M2460.9,362.505a0.88,0.88,0,0,0-.8-0.515h-20.2a0.88,0.88,0,0,0-.8.515,0.87,0.87,0,0,0,.13.949l7.86,9.327v6.294a0.889,0.889,0,0,0,.49.8l4.04,2.025a0.9,0.9,0,0,0,.87-0.039,0.894,0.894,0,0,0,.42-0.757v-8.318l7.87-9.327A0.887,0.887,0,0,0,2460.9,362.505Zm-9.56,9.376a0.92,0.92,0,0,0-.21.574v7.205l-2.26-1.135v-6.07a0.92,0.92,0,0,0-.21-0.574l-6.84-8.112h16.37Z" transform="translate(-2439 -362)"/>
</svg>
